<svg xmlns="http://www.w3.org/2000/svg" xmlns:xlink="http://www.w3.org/1999/xlink" id="Layer_1" x="0" y="0" version="1.1" viewBox="0 0 34.41 34.41" xml:space="preserve" style="enable-background:new 0 0 34.41 34.41"><style type="text/css">.st0{fill:#fff;stroke:url(#SVGID_1_);stroke-miterlimit:10}.st1{fill:url(#SVGID_2_)}.st2{fill:#fff}</style><g><linearGradient id="SVGID_1_" x1=".931" x2="33.474" y1="17.203" y2="17.203" gradientUnits="userSpaceOnUse"><stop offset="0" style="stop-color:#9e99ff"/><stop offset="1" style="stop-color:#5c45ff"/></linearGradient><path d="M17.2,33.2c-21.03-0.34-21.03-31.67,0-32C38.23,1.54,38.23,32.87,17.2,33.2z" class="st0"/><linearGradient id="SVGID_2_" x1="3.943" x2="30.407" y1="20.058" y2="20.058" gradientUnits="userSpaceOnUse"><stop offset="0" style="stop-color:#9e99ff"/><stop offset="1" style="stop-color:#5c45ff"/></linearGradient><path d="M30.18,15.91C27.99,7.12,2.89,7.18,3.98,18.3C4.5,36.09,33.23,33.71,30.18,15.91z" class="st1"/><path d="M6.42,21.1c-0.02-1.21,1.88-1.21,1.86,0C8.29,22.3,6.4,22.3,6.42,21.1z" class="st2"/><path d="M6.18,16.81c-0.04-3.03,4.72-3.03,4.67,0C10.89,19.84,6.13,19.84,6.18,16.81z" class="st2"/><path d="M25.61,24.56c0.38-5.63,1.38-7.4-3.5-12.11c0.2-0.9,4.8,0.56,6,4C29.3,19.88,26.61,25.12,25.61,24.56z" class="st2"/></g></svg>